<svg viewBox="0 0 12 12" fill="none" xmlns="http://www.w3.org/2000/svg">
    <path d="M6 12C9.31371 12 12 9.31371 12 6C12 2.68629 9.31371 0 6 0C2.68629 0 0 2.68629 0 6C0 9.31371 2.68629 12 6 12ZM5.35355 3.14645L7.85355 5.64645C8.04882 5.84171 8.04882 6.15829 7.85355 6.35355L5.35355 8.85355C5.15829 9.04882 4.84171 9.04882 4.64645 8.85355C4.45118 8.65829 4.45118 8.34171 4.64645 8.14645L6.79289 6L4.64645 3.85355C4.45118 3.65829 4.45118 3.34171 4.64645 3.14645C4.84171 2.95118 5.15829 2.95118 5.35355 3.14645Z" fill="white"/>
</svg>
