<svg viewBox="0 0 40 40" fill="none" xmlns="http://www.w3.org/2000/svg">
    <path d="M20 -5.56315e-06C8.95431 -6.5288e-06 -1.1006e-06 8.9543 -2.06624e-06 20C-3.03189e-06 31.0457 8.9543 40 20 40C31.0457 40 40 31.0457 40 20C40 8.9543 31.0457 -4.59751e-06 20 -5.56315e-06ZM28.6161 23.6339L20 15.0178L11.3839 23.6339C10.8957 24.122 10.1043 24.122 9.61612 23.6339C9.12796 23.1457 9.12796 22.3543 9.61612 21.8661L19.1161 12.3661C19.6043 11.878 20.3957 11.878 20.8839 12.3661L30.3839 21.8661C30.872 22.3543 30.872 23.1457 30.3839 23.6339C29.8957 24.122 29.1043 24.122 28.6161 23.6339Z" fill="#EDEBE9"/>
</svg>