<svg viewBox="0 0 40 40" fill="none" xmlns="http://www.w3.org/2000/svg">
    <path d="M2.5 20C2.5 10.335 10.335 2.5 20 2.5C29.665 2.5 37.5 10.335 37.5 20C37.5 29.665 29.665 37.5 20 37.5C10.335 37.5 2.5 29.665 2.5 20ZM20 0C8.95431 0 0 8.95431 0 20C0 31.0457 8.9543 40 20 40C31.0457 40 40 31.0457 40 20C40 8.95431 31.0457 0 20 0ZM11.3839 16.3661C10.8957 15.878 10.1043 15.878 9.61612 16.3661C9.12796 16.8543 9.12796 17.6457 9.61612 18.1339L19.1161 27.6339C19.6043 28.122 20.3957 28.122 20.8839 27.6339L30.3839 18.1339C30.872 17.6457 30.872 16.8543 30.3839 16.3661C29.8957 15.878 29.1043 15.878 28.6161 16.3661L20 24.9822L11.3839 16.3661Z" fill="#FAF9F8"/>
</svg>
